<?xml version="1.0" encoding="UTF-8" standalone="no"?>
<!-- Created with Inkscape (http://www.inkscape.org/) -->

<svg
   xmlns:dc="http://purl.org/dc/elements/1.1/"
   xmlns:cc="http://creativecommons.org/ns#"
   xmlns:rdf="http://www.w3.org/1999/02/22-rdf-syntax-ns#"
   xmlns:svg="http://www.w3.org/2000/svg"
   xmlns="http://www.w3.org/2000/svg"
   xmlns:sodipodi="http://sodipodi.sourceforge.net/DTD/sodipodi-0.dtd"
   xmlns:inkscape="http://www.inkscape.org/namespaces/inkscape"
   width="25.675138mm"
   height="31.334194mm"
   viewBox="0 0 90.974901 111.02667"
   id="svg6337"
   version="1.1"
   inkscape:version="0.91 r13725"
   sodipodi:docname="drawing.svg">
  <defs
     id="defs6339">
    <clipPath
       clipPathUnits="userSpaceOnUse"
       id="clipPath4152">
      <path
         d="m 0,0 158.37,0 0,51.104 L 0,51.104 0,0 Z"
         id="path4154"
         inkscape:connector-curvature="0" />
    </clipPath>
    <clipPath
       clipPathUnits="userSpaceOnUse"
       id="clipPath4166">
      <path
         d="m 0,51.104 0,-51.00069 159,0 0,51.00069"
         id="path4168"
         inkscape:connector-curvature="0"
         style="clip-rule:evenodd" />
    </clipPath>
    <clipPath
       clipPathUnits="userSpaceOnUse"
       id="clipPath4176">
      <path
         d="m 0,51.104 0,-51.00069 159,0 0,51.00069"
         id="path4178"
         inkscape:connector-curvature="0"
         style="clip-rule:evenodd" />
    </clipPath>
    <clipPath
       clipPathUnits="userSpaceOnUse"
       id="clipPath4186">
      <path
         d="m 0,51.104 0,-51.00069 159,0 0,51.00069"
         id="path4188"
         inkscape:connector-curvature="0"
         style="clip-rule:evenodd" />
    </clipPath>
    <clipPath
       clipPathUnits="userSpaceOnUse"
       id="clipPath4196">
      <path
         d="m 0,51.104 0,-51.00069 159,0 0,51.00069"
         id="path4198"
         inkscape:connector-curvature="0"
         style="clip-rule:evenodd" />
    </clipPath>
    <clipPath
       clipPathUnits="userSpaceOnUse"
       id="clipPath4206">
      <path
         d="m 0,51.104 0,-51.00069 159,0 0,51.00069"
         id="path4208"
         inkscape:connector-curvature="0"
         style="clip-rule:evenodd" />
    </clipPath>
    <clipPath
       clipPathUnits="userSpaceOnUse"
       id="clipPath4216">
      <path
         d="m 0,51.104 0,-51.00069 159,0 0,51.00069"
         id="path4218"
         inkscape:connector-curvature="0"
         style="clip-rule:evenodd" />
    </clipPath>
    <clipPath
       clipPathUnits="userSpaceOnUse"
       id="clipPath4226">
      <path
         d="m 0,51.104 0,-51.00069 159,0 0,51.00069"
         id="path4228"
         inkscape:connector-curvature="0"
         style="clip-rule:evenodd" />
    </clipPath>
    <clipPath
       clipPathUnits="userSpaceOnUse"
       id="clipPath4236">
      <path
         d="m 0,51.104 0,-51.00069 159,0 0,51.00069"
         id="path4238"
         inkscape:connector-curvature="0"
         style="clip-rule:evenodd" />
    </clipPath>
    <clipPath
       clipPathUnits="userSpaceOnUse"
       id="clipPath4246">
      <path
         d="m 0,51.104 0,-51.00069 159,0 0,51.00069"
         id="path4248"
         inkscape:connector-curvature="0"
         style="clip-rule:evenodd" />
    </clipPath>
    <clipPath
       clipPathUnits="userSpaceOnUse"
       id="clipPath4256">
      <path
         d="m 0,51.104 0,-51.00069 159,0 0,51.00069"
         id="path4258"
         inkscape:connector-curvature="0"
         style="clip-rule:evenodd" />
    </clipPath>
    <clipPath
       clipPathUnits="userSpaceOnUse"
       id="clipPath4266">
      <path
         d="m 0,51.104 0,-51.00069 159,0 0,51.00069"
         id="path4268"
         inkscape:connector-curvature="0"
         style="clip-rule:evenodd" />
    </clipPath>
    <clipPath
       clipPathUnits="userSpaceOnUse"
       id="clipPath4276">
      <path
         d="m 0,51.104 0,-51.00069 159,0 0,51.00069"
         id="path4278"
         inkscape:connector-curvature="0"
         style="clip-rule:evenodd" />
    </clipPath>
    <clipPath
       clipPathUnits="userSpaceOnUse"
       id="clipPath4286">
      <path
         d="m 0,51.104 0,-51.00069 159,0 0,51.00069"
         id="path4288"
         inkscape:connector-curvature="0"
         style="clip-rule:evenodd" />
    </clipPath>
    <clipPath
       clipPathUnits="userSpaceOnUse"
       id="clipPath4296">
      <path
         d="m 0,51.104 0,-51.00069 159,0 0,51.00069"
         id="path4298"
         inkscape:connector-curvature="0"
         style="clip-rule:evenodd" />
    </clipPath>
    <clipPath
       clipPathUnits="userSpaceOnUse"
       id="clipPath4306">
      <path
         d="m 0,51.104 0,-51.00069 159,0 0,51.00069"
         id="path4308"
         inkscape:connector-curvature="0"
         style="clip-rule:evenodd" />
    </clipPath>
    <clipPath
       clipPathUnits="userSpaceOnUse"
       id="clipPath4316">
      <path
         d="m 0,51.104 0,-51.00069 159,0 0,51.00069"
         id="path4318"
         inkscape:connector-curvature="0"
         style="clip-rule:evenodd" />
    </clipPath>
    <clipPath
       clipPathUnits="userSpaceOnUse"
       id="clipPath4326">
      <path
         d="m 0,51.104 0,-51.00069 159,0 0,51.00069"
         id="path4328"
         inkscape:connector-curvature="0"
         style="clip-rule:evenodd" />
    </clipPath>
    <clipPath
       clipPathUnits="userSpaceOnUse"
       id="clipPath4336">
      <path
         d="m 0,51.104 0,-51.00069 159,0 0,51.00069"
         id="path4338"
         inkscape:connector-curvature="0"
         style="clip-rule:evenodd" />
    </clipPath>
    <clipPath
       clipPathUnits="userSpaceOnUse"
       id="clipPath4346">
      <path
         d="m 0,51.104 0,-51.00069 159,0 0,51.00069"
         id="path4348"
         inkscape:connector-curvature="0"
         style="clip-rule:evenodd" />
    </clipPath>
    <clipPath
       clipPathUnits="userSpaceOnUse"
       id="clipPath4356">
      <path
         d="m 0,51.104 0,-51.00069 159,0 0,51.00069"
         id="path4358"
         inkscape:connector-curvature="0"
         style="clip-rule:evenodd" />
    </clipPath>
    <clipPath
       clipPathUnits="userSpaceOnUse"
       id="clipPath4366">
      <path
         d="m 0,51.104 0,-51.00069 159,0 0,51.00069"
         id="path4368"
         inkscape:connector-curvature="0"
         style="clip-rule:evenodd" />
    </clipPath>
    <clipPath
       clipPathUnits="userSpaceOnUse"
       id="clipPath4376">
      <path
         d="m 0,51.104 0,-51.00069 159,0 0,51.00069"
         id="path4378"
         inkscape:connector-curvature="0"
         style="clip-rule:evenodd" />
    </clipPath>
    <clipPath
       clipPathUnits="userSpaceOnUse"
       id="clipPath4386">
      <path
         d="m 0,51.104 0,-51.00069 159,0 0,51.00069"
         id="path4388"
         inkscape:connector-curvature="0"
         style="clip-rule:evenodd" />
    </clipPath>
    <clipPath
       clipPathUnits="userSpaceOnUse"
       id="clipPath4396">
      <path
         d="m 0,51.104 0,-51.00069 159,0 0,51.00069"
         id="path4398"
         inkscape:connector-curvature="0"
         style="clip-rule:evenodd" />
    </clipPath>
    <clipPath
       clipPathUnits="userSpaceOnUse"
       id="clipPath4406">
      <path
         d="m 0,51.104 0,-51.00069 159,0 0,51.00069"
         id="path4408"
         inkscape:connector-curvature="0"
         style="clip-rule:evenodd" />
    </clipPath>
    <clipPath
       clipPathUnits="userSpaceOnUse"
       id="clipPath4416">
      <path
         d="m 0,51.104 0,-51.00069 159,0 0,51.00069"
         id="path4418"
         inkscape:connector-curvature="0"
         style="clip-rule:evenodd" />
    </clipPath>
    <clipPath
       clipPathUnits="userSpaceOnUse"
       id="clipPath4426">
      <path
         d="m 0,51.104 0,-51.00069 159,0 0,51.00069"
         id="path4428"
         inkscape:connector-curvature="0"
         style="clip-rule:evenodd" />
    </clipPath>
    <clipPath
       clipPathUnits="userSpaceOnUse"
       id="clipPath4436">
      <path
         d="m 0,51.104 0,-51.00069 159,0 0,51.00069"
         id="path4438"
         inkscape:connector-curvature="0"
         style="clip-rule:evenodd" />
    </clipPath>
    <clipPath
       clipPathUnits="userSpaceOnUse"
       id="clipPath4446">
      <path
         d="m 0,51.104 0,-51.00069 159,0 0,51.00069"
         id="path4448"
         inkscape:connector-curvature="0"
         style="clip-rule:evenodd" />
    </clipPath>
    <clipPath
       clipPathUnits="userSpaceOnUse"
       id="clipPath4456">
      <path
         d="m 0,51.104 0,-51.00069 159,0 0,51.00069"
         id="path4458"
         inkscape:connector-curvature="0"
         style="clip-rule:evenodd" />
    </clipPath>
    <clipPath
       clipPathUnits="userSpaceOnUse"
       id="clipPath4466">
      <path
         d="m 0,51.104 0,-51.00069 159,0 0,51.00069"
         id="path4468"
         inkscape:connector-curvature="0"
         style="clip-rule:evenodd" />
    </clipPath>
    <clipPath
       clipPathUnits="userSpaceOnUse"
       id="clipPath4476">
      <path
         d="m 0,51.104 0,-51.00069 159,0 0,51.00069"
         id="path4478"
         inkscape:connector-curvature="0"
         style="clip-rule:evenodd" />
    </clipPath>
    <clipPath
       clipPathUnits="userSpaceOnUse"
       id="clipPath4486">
      <path
         d="m 0,51.104 0,-51.00069 159,0 0,51.00069"
         id="path4488"
         inkscape:connector-curvature="0"
         style="clip-rule:evenodd" />
    </clipPath>
    <clipPath
       clipPathUnits="userSpaceOnUse"
       id="clipPath4496">
      <path
         d="m 0,51.104 0,-51.00069 159,0 0,51.00069"
         id="path4498"
         inkscape:connector-curvature="0"
         style="clip-rule:evenodd" />
    </clipPath>
    <clipPath
       clipPathUnits="userSpaceOnUse"
       id="clipPath4506">
      <path
         d="m 0,51.104 0,-51.00069 159,0 0,51.00069"
         id="path4508"
         inkscape:connector-curvature="0"
         style="clip-rule:evenodd" />
    </clipPath>
    <clipPath
       clipPathUnits="userSpaceOnUse"
       id="clipPath4516">
      <path
         d="m 0,51.104 0,-51.00069 159,0 0,51.00069"
         id="path4518"
         inkscape:connector-curvature="0"
         style="clip-rule:evenodd" />
    </clipPath>
    <clipPath
       clipPathUnits="userSpaceOnUse"
       id="clipPath4526">
      <path
         d="m 0,51.104 0,-51.00069 159,0 0,51.00069"
         id="path4528"
         inkscape:connector-curvature="0"
         style="clip-rule:evenodd" />
    </clipPath>
  </defs>
  <sodipodi:namedview
     id="base"
     pagecolor="#ffffff"
     bordercolor="#666666"
     borderopacity="1.0"
     inkscape:pageopacity="0.0"
     inkscape:pageshadow="2"
     inkscape:zoom="3.959798"
     inkscape:cx="105.08342"
     inkscape:cy="95.916287"
     inkscape:document-units="px"
     inkscape:current-layer="g4150"
     showgrid="false"
     fit-margin-top="0"
     fit-margin-left="0"
     fit-margin-right="0"
     fit-margin-bottom="0"
     inkscape:window-width="1920"
     inkscape:window-height="1018"
     inkscape:window-x="-8"
     inkscape:window-y="-8"
     inkscape:window-maximized="1" />
  <metadata
     id="metadata6342">
    <rdf:RDF>
      <cc:Work
         rdf:about="">
        <dc:format>image/svg+xml</dc:format>
        <dc:type
           rdf:resource="http://purl.org/dc/dcmitype/StillImage" />
        <dc:title></dc:title>
      </cc:Work>
    </rdf:RDF>
  </metadata>
  <g
     inkscape:label="Layer 1"
     inkscape:groupmode="layer"
     id="layer1"
     transform="translate(704.21639,-1241.8797)">
    <g
       id="g4146"
       transform="matrix(2.757875,0,0,-0.8904125,-691.05697,1305.1417)">
      <g
         id="g4148"
         transform="scale(0.45463,1.4089)">
        <g
           id="g4150"
           clip-path="url(#clipPath4152)">
          <g
             id="g4156">
            <g
               id="g4158">
              <g
                 id="g4160" />
            </g>
            <g
               id="g4162">
              <g
                 id="g4164"
                 clip-path="url(#clipPath4166)" />
            </g>
            <g
               id="g4172">
              <g
                 id="g4174"
                 clip-path="url(#clipPath4176)" />
            </g>
            <g
               id="g4182">
              <g
                 id="g4184"
                 clip-path="url(#clipPath4186)" />
            </g>
            <g
               id="g4192">
              <g
                 id="g4194"
                 clip-path="url(#clipPath4196)" />
            </g>
            <g
               id="g4202">
              <g
                 id="g4204"
                 clip-path="url(#clipPath4206)" />
            </g>
            <g
               id="g4212">
              <g
                 id="g4214"
                 clip-path="url(#clipPath4216)" />
            </g>
            <g
               id="g4222">
              <g
                 id="g4224"
                 clip-path="url(#clipPath4226)" />
            </g>
            <g
               id="g4232">
              <g
                 id="g4234"
                 clip-path="url(#clipPath4236)" />
            </g>
            <g
               id="g4242">
              <g
                 id="g4244"
                 clip-path="url(#clipPath4246)" />
            </g>
            <g
               id="g4252">
              <g
                 id="g4254"
                 clip-path="url(#clipPath4256)" />
            </g>
            <g
               id="g4262">
              <g
                 id="g4264"
                 clip-path="url(#clipPath4266)" />
            </g>
            <g
               id="g4272">
              <g
                 id="g4274"
                 clip-path="url(#clipPath4276)" />
            </g>
            <g
               id="g4282">
              <g
                 id="g4284"
                 clip-path="url(#clipPath4286)" />
            </g>
            <g
               id="g4292">
              <g
                 id="g4294"
                 clip-path="url(#clipPath4296)" />
            </g>
            <g
               id="g4302">
              <g
                 id="g4304"
                 clip-path="url(#clipPath4306)" />
            </g>
            <g
               id="g4312">
              <g
                 id="g4314"
                 clip-path="url(#clipPath4316)" />
            </g>
            <g
               id="g4322">
              <g
                 id="g4324"
                 clip-path="url(#clipPath4326)" />
            </g>
            <g
               id="g4332">
              <g
                 id="g4334"
                 clip-path="url(#clipPath4336)" />
            </g>
            <g
               id="g4342">
              <g
                 id="g4344"
                 clip-path="url(#clipPath4346)" />
            </g>
            <g
               id="g4352">
              <g
                 id="g4354"
                 clip-path="url(#clipPath4356)" />
            </g>
            <g
               id="g4362">
              <g
                 id="g4364"
                 clip-path="url(#clipPath4366)" />
            </g>
            <g
               id="g4372">
              <g
                 id="g4374"
                 clip-path="url(#clipPath4376)" />
            </g>
            <g
               id="g4382">
              <g
                 id="g4384"
                 clip-path="url(#clipPath4386)" />
            </g>
            <g
               id="g4392">
              <g
                 id="g4394"
                 clip-path="url(#clipPath4396)" />
            </g>
            <g
               id="g4402">
              <g
                 id="g4404"
                 clip-path="url(#clipPath4406)" />
            </g>
            <g
               id="g4412">
              <g
                 id="g4414"
                 clip-path="url(#clipPath4416)">
                <path
                   d="m 50.049,26.092 0,0 c 0,13.445 -10.88,24.336 -24.312,24.336 -13.431,0 -24.2363,-10.891 -24.2363,-24.336 0,-13.37 10.8053,-24.2611 24.2363,-24.2611 13.432,0 24.312,10.8911 24.312,24.2611 z"
                   style="fill:#ffffff;fill-opacity:1;fill-rule:nonzero;stroke:none"
                   id="path4420"
                   inkscape:connector-curvature="0" />
              </g>
            </g>
            <g
               id="g4422">
              <g
                 id="g4424"
                 clip-path="url(#clipPath4426)">
                <path
                   d="m 23.336,29.998 0,0 0,-1.427 c 0,-0.226 0.15,-0.451 0.375,-0.451 0.676,0 1.351,0 2.026,0 0.676,0 1.351,0 2.026,0 0.225,0 0.375,0.225 0.375,0.451 l 0,1.427 c 0,0.225 -0.15,0.375 -0.375,0.375 -0.675,0 -1.35,0.075 -2.026,0.075 -0.675,0 -1.35,-0.075 -2.026,-0.075 -0.225,0 -0.375,-0.15 -0.375,-0.375 z"
                   style="fill:#007549;fill-opacity:1;fill-rule:nonzero;stroke:none"
                   id="path4430"
                   inkscape:connector-curvature="0" />
              </g>
            </g>
            <g
               id="g4432">
              <g
                 id="g4434"
                 clip-path="url(#clipPath4436)">
                <path
                   d="m 26.938,14.299 0,0 c 0,-0.676 -0.525,-1.201 -1.201,-1.201 -0.675,0 -1.2,0.525 -1.2,1.201 0,0.676 0.525,1.277 1.2,1.277 0.676,0 1.201,-0.601 1.201,-1.277 z"
                   style="fill:#007549;fill-opacity:1;fill-rule:nonzero;stroke:none"
                   id="path4440"
                   inkscape:connector-curvature="0" />
              </g>
            </g>
            <g
               id="g4442">
              <g
                 id="g4444"
                 clip-path="url(#clipPath4446)">
                <path
                   d="m 32.64,11.821 0,0 0,0 c 0,0.225 -0.225,0.375 -0.45,0.375 -2.026,-0.676 -4.202,-0.976 -6.453,-0.976 -2.251,0 -4.427,0.3 -6.453,0.976 -0.225,0 -0.45,-0.15 -0.45,-0.375 0,-0.15 0.075,-0.301 0.225,-0.376 2.101,-0.601 4.352,-0.976 6.678,-0.976 2.326,0 4.577,0.375 6.678,0.976 0.15,0.075 0.225,0.226 0.225,0.376 z"
                   style="fill:#007549;fill-opacity:1;fill-rule:nonzero;stroke:none"
                   id="path4450"
                   inkscape:connector-curvature="0" />
              </g>
            </g>
            <g
               id="g4452">
              <g
                 id="g4454"
                 clip-path="url(#clipPath4456)">
                <path
                   d="m 21.085,40.889 0,0 c -0.6,-0.075 -1.126,-0.15 -1.726,-0.3 -0.3,0 -0.525,-0.301 -0.525,-0.601 l 0,-4.732 c 0,-0.376 0.3,-0.676 0.75,-0.601 0.526,0 1.126,0.075 1.651,0.15 0.375,0 0.6,0.3 0.6,0.676 l 0,4.807 c 0,0.376 -0.3,0.676 -0.75,0.601 z"
                   style="fill:#007549;fill-opacity:1;fill-rule:nonzero;stroke:none"
                   id="path4460"
                   inkscape:connector-curvature="0" />
              </g>
            </g>
            <g
               id="g4462">
              <g
                 id="g4464"
                 clip-path="url(#clipPath4466)">
                <path
                   d="m 28.664,40.513 0,0 c 0,0.301 -0.226,0.601 -0.601,0.601 -0.75,0.075 -1.5,0.151 -2.326,0.151 -0.75,0 -1.576,-0.076 -2.326,-0.151 -0.375,0 -0.6,-0.3 -0.6,-0.601 l 0,-4.957 c 0,-0.376 0.3,-0.676 0.675,-0.601 0.75,0 1.501,0 2.251,0 0.751,0 1.501,0 2.251,0 0.375,-0.075 0.676,0.225 0.676,0.601 l 0,4.957 z"
                   style="fill:#007549;fill-opacity:1;fill-rule:nonzero;stroke:none"
                   id="path4470"
                   inkscape:connector-curvature="0" />
              </g>
            </g>
            <g
               id="g4472">
              <g
                 id="g4474"
                 clip-path="url(#clipPath4476)">
                <path
                   d="m 29.639,40.288 0,0 0,-4.807 c 0,-0.376 0.225,-0.676 0.6,-0.676 0.601,-0.075 1.126,-0.15 1.726,-0.15 0.375,-0.075 0.675,0.225 0.675,0.601 l 0,4.732 c 0,0.3 -0.15,0.601 -0.525,0.601 -0.525,0.15 -1.125,0.225 -1.726,0.3 -0.45,0.075 -0.75,-0.225 -0.75,-0.601 z"
                   style="fill:#007549;fill-opacity:1;fill-rule:nonzero;stroke:none"
                   id="path4480"
                   inkscape:connector-curvature="0" />
              </g>
            </g>
            <g
               id="g4482">
              <g
                 id="g4484"
                 clip-path="url(#clipPath4486)">
                <path
                   d="m 22.135,25.867 0,0 -2.626,0 c -0.375,0 -0.675,-0.301 -0.675,-0.676 l 0,-4.808 c 0,-0.375 0.225,-0.6 0.6,-0.676 0.826,-0.075 1.801,-0.15 2.701,-0.15 0.376,0 0.676,0.301 0.676,0.676 l 0,4.958 c 0,0.375 -0.3,0.676 -0.676,0.676 z"
                   style="fill:#007549;fill-opacity:1;fill-rule:nonzero;stroke:none"
                   id="path4490"
                   inkscape:connector-curvature="0" />
              </g>
            </g>
            <g
               id="g4492">
              <g
                 id="g4494"
                 clip-path="url(#clipPath4496)">
                <path
                   d="m 28.664,25.191 0,0 0,-4.958 c 0,-0.375 0.3,-0.676 0.675,-0.676 0.975,0.075 1.876,0.075 2.701,0.15 0.375,0.076 0.6,0.301 0.6,0.676 l 0,4.808 c 0,0.375 -0.225,0.676 -0.6,0.676 l -2.701,0 c -0.375,0 -0.675,-0.301 -0.675,-0.676 z"
                   style="fill:#007549;fill-opacity:1;fill-rule:nonzero;stroke:none"
                   id="path4500"
                   inkscape:connector-curvature="0" />
              </g>
            </g>
            <g
               id="g4502">
              <g
                 id="g4504"
                 clip-path="url(#clipPath4506)">
                <path
                   d="m 27.088,25.867 0,0 -2.701,0 c -0.376,0 -0.676,-0.301 -0.676,-0.676 l 0,-5.033 c 0,-0.375 0.3,-0.676 0.676,-0.676 0.45,0 0.9,0 1.35,0 0.45,0 0.901,0 1.351,0 0.375,0 0.675,0.301 0.675,0.676 l 0,5.033 c 0,0.375 -0.3,0.676 -0.675,0.676 z"
                   style="fill:#007549;fill-opacity:1;fill-rule:nonzero;stroke:none"
                   id="path4510"
                   inkscape:connector-curvature="0" />
              </g>
            </g>
            <g
               id="g4512">
              <g
                 id="g4514"
                 clip-path="url(#clipPath4516)">
                <path
                   d="m 23.711,49.827 0,0 c -0.075,0.301 -0.45,0.451 -0.75,0.451 C 18.534,49.752 14.482,48.1 11.105,45.546 l 0,0 C 5.2525,41.114 1.5007,34.054 1.5007,26.092 1.5007,16.252 7.3535,7.6896 15.832,3.934 16.883,3.4833 18.159,3.7838 18.834,4.6851 L 21.235,7.99 C 20.11,8.1403 19.059,8.3656 18.009,8.666 17.558,8.8163 17.333,9.1918 17.333,9.5674 l 0,32.5986 c 0,0.375 0.225,0.751 0.676,0.826 1.275,0.376 2.551,0.676 3.901,0.826 l 0.15,1.352 c 0,0.226 0.226,0.376 0.451,0.376 l 2.626,0 -1.426,4.281 z"
                   style="fill:#007549;fill-opacity:1;fill-rule:nonzero;stroke:none"
                   id="path4520"
                   inkscape:connector-curvature="0" />
              </g>
            </g>
            <g
               id="g4522">
              <g
                 id="g4524"
                 clip-path="url(#clipPath4526)">
                <path
                   d="m 40.369,45.546 0,0 0,0 c -4.052,3.08 -9.154,4.882 -14.632,4.882 -0.3,0 -0.525,0 -0.825,0 -0.3,0 -0.45,-0.3 -0.375,-0.601 l 1.425,-4.281 3.002,0 c 0.225,0 0.45,-0.15 0.45,-0.376 l 0.15,-1.352 c 1.351,-0.15 2.701,-0.45 3.977,-0.826 0.375,-0.075 0.6,-0.451 0.6,-0.826 l 0,-32.5986 c 0,-0.4507 -0.225,-0.7511 -0.6,-0.9014 C 32.49,8.3656 31.365,8.1403 30.239,7.99 L 32.64,4.6851 c 0.676,-0.9013 1.951,-1.2018 3.002,-0.7511 8.479,3.7556 14.407,12.318 14.407,22.158 0,7.962 -3.827,15.022 -9.68,19.454 z"
                   style="fill:#007549;fill-opacity:1;fill-rule:nonzero;stroke:none"
                   id="path4530"
                   inkscape:connector-curvature="0" />
              </g>
            </g>
          </g>
        </g>
      </g>
      <path
         inkscape:connector-curvature="0"
         style="fill:#007549;fill-opacity:1;fill-rule:nonzero;stroke:none"
         d="m 24.571793,-7.378902 c -0.05059,0 -0.07779,-0.1567963 -0.07779,-0.3147352 l 0,-1.503184 -2.631647,0 c -0.02363,0 -0.07411,-0.07839 -0.07411,-0.1573683 l 0,-1.3458245 c 0,-0.158954 0.0503,-0.237689 0.100914,-0.237689 l 2.604843,0 0,-1.66056 -1.973603,0 c -0.151837,0 -0.303673,-0.235498 -0.377903,-0.552423 -0.101221,-0.315869 -0.151896,-0.713292 -0.151896,-1.108129 l 0,-5.614417 c 0,-0.395895 0.05086,-0.789859 0.12509,-1.027808 0.101221,-0.394837 0.252872,-0.554068 0.404709,-0.554068 l 1.973603,0 0,-1.66056 -2.733087,0 c -0.05061,0 -0.100915,-0.07973 -0.100915,-0.237688 l 0,-1.265497 c 0,-0.157904 0.0503,-0.236052 0.100915,-0.236052 l 2.733087,0 0,-2.21462 c 0,-0.158987 0.02718,-0.396701 0.07779,-0.396701 l 0.78629,0 c 0.02363,0 0.07411,0.237714 0.07411,0.396701 l 0,2.21462 2.682106,0 c 0.05061,0 0.101439,0.0778 0.101439,0.314736 l 0,1.186813 c 0,0.157904 -0.05083,0.237688 -0.101439,0.237688 l -2.682106,0 0,1.66056 1.949952,0 c 0.17545,0 0.304009,0.157871 0.405233,0.47374 0.07423,0.236907 0.124566,0.554303 0.124566,1.108136 l 0,5.852105 c 0,0.395887 -0.07432,0.790909 -0.175548,1.027809 -0.10122,0.237964 -0.229408,0.395055 -0.354251,0.395055 l -1.949952,0 0,1.66056 2.581192,0 c 0.05061,0 0.100914,0.08007 0.100914,0.318018 l 0,1.1851752 c 0,0.158946 -0.0503,0.2376886 -0.100914,0.2376886 l -2.581192,0 0,1.503184 c 0,0.1579389 -0.05083,0.3147352 -0.101438,0.3147352 l -0.75896,0 z M 0.72245069,-7.4575438 c -0.0506105,0 -0.10091395,-0.1570481 -0.10091395,-0.2360508 l -0.0257535,-0.4753765 -4.88591974,0 c -0.050608,0 -0.1014386,-0.1586937 -0.1014386,-0.2376965 l 0,-1.3441804 c 0,-0.078978 0.05083,-0.2360516 0.1014386,-0.2360516 l 2.4808028,0 0,-1.8982484 -2.6326983,0 c -0.025293,0 -0.076213,-0.07999 -0.076213,-0.159005 l 0,-1.34418 c 0,-0.157904 0.05083,-0.237696 0.1014407,-0.237696 l 2.6074702,0 0,-3.47848 c 0,-0.158988 0.025269,-0.318009 0.07621,-0.318009 l 0.7847127,0 c 0.0506209,0 0.0762103,0.159021 0.0762103,0.318009 l 0,3.47848 2.6074723,0 c 0.025296,0 0.075686,0.07948 0.075686,0.316381 l 0,1.186812 c 0,0.157904 -0.050306,0.237688 -0.1009139,0.237688 l -2.5822439,0 0,1.8982484 1.9489022,0 c 0.1015571,0 0.2535552,0.078138 0.3547759,0.2360516 0.1012235,0.2368991 0.1769709,0.4756033 0.2275813,0.8704406 l 0.076213,1.1868128 c 0.025296,0.1579045 -0.025699,0.2360508 -0.050985,0.2360508 l -0.96183684,0 z m 3.49414891,0 c -0.025293,0 -0.07621,-0.1570481 -0.07621,-0.2360508 l 0.6328142,-4.6669304 c 0.025293,-0.157938 0.076057,-0.157367 0.1266673,-0.157367 l 0.91138,0 c 0.050607,0 0.075752,0.157393 0.050459,0.316372 L 5.178439,-7.5362274 c 0,0.078977 -0.076146,0.078642 -0.1014393,0.078642 l -0.8603975,0 z m 2.6326973,0 c -0.025293,0 -0.07621,-0.07839 -0.07621,-0.1573672 l 0,-2.135937 -0.7342554,0 c -0.050607,0 -0.1009145,-0.078138 -0.1009145,-0.2360516 l 0,-1.3458164 c 0,-0.07898 0.050303,-0.237697 0.1009145,-0.237697 l 0.7342554,0 0,-2.1343 -0.9618365,0 c -0.025293,0 -0.075686,-0.07973 -0.075686,-0.237688 l 0,-1.34418 c 0,-0.07898 0.050392,-0.237688 0.075686,-0.237688 l 0.7847123,0 -0.8856269,-3.558809 c -0.025293,-0.15793 -1.529e-4,-0.316372 0.050459,-0.316372 l 0.5061474,0 0,-6.484857 c 0,-0.473807 0.050674,-0.869592 0.1518954,-1.106492 0.07592,-0.316934 0.1772667,-0.475384 0.3037945,-0.475384 l 3.6949249,0 c 0.02699,0 0.05081,0.0016 0.07779,0.08032 l 0.226004,1.501556 c 0,0.07898 -0.02347,0.237688 -0.05046,0.237688 l -3.4673403,0 0,2.293304 2.4313976,0 c 0.1518316,0 0.2766473,0.158157 0.3542485,0.395056 0.1012262,0.316934 0.1245662,0.71225 0.1245662,1.108137 l 0,2.609676 0.506147,0 c 0.05061,0 0.07796,0.158694 0.05098,0.237688 l -0.8335896,3.478489 0.7321516,0 c 0.05062,0 0.128244,0.07973 0.128244,0.237688 l 0,1.34418 c 0,0.07898 -0.07763,0.237688 -0.128244,0.237688 l -0.9618375,0 0,2.1343 0.7358335,0 c 0.02363,0 0.100913,0.160079 0.100913,0.318017 l 0,1.2654964 c 0,0.1579045 -0.0503,0.2360516 -0.100913,0.2360516 l -0.7358335,0 0,2.0572534 c 0,0.1579045 -0.023497,0.2360508 -0.074112,0.2360508 l -0.7852373,0 c -0.025293,0 -0.07621,-0.078138 -0.07621,-0.2360508 l 0,-2.0572534 -0.9618369,0 0,2.135937 c 0,0.078894 -0.025077,0.1573672 -0.075685,0.1573672 l -0.785238,0 z m 6.3791321,-0.2360508 c -0.05062,0 -0.07463,-0.079734 -0.07463,-0.2376883 l 0,-1.0278082 c 0,-0.078978 0.05102,-0.2376882 0.07463,-0.2376882 l 2.482905,0 0,-1.1868127 -2.101848,0 c -0.178827,0 -0.330815,-0.158467 -0.432038,-0.475384 -0.10122,-0.315869 -0.151899,-0.71137 -0.151899,-1.185177 l 0,-3.00474 c 0,-0.158979 0.05083,-0.316372 0.101442,-0.316372 l 0.735305,0 c 0.05061,0 0.07463,0.157393 0.07463,0.316372 l 0,3.163745 1.774405,0 0,-3.401433 c 0,-0.157938 0.02403,-0.316372 0.07464,-0.316372 l 0.785762,0 c 0.02363,0 0.07411,0.158434 0.07411,0.316372 l 0,3.401433 1.748125,0 0,-3.163745 c 0,-0.158979 0.0503,-0.316372 0.100913,-0.316372 l 0.735833,0 c 0.05062,0 0.07411,0.157393 0.07411,0.316372 l 0,3.00474 c 0,0.553826 -0.02385,0.948277 -0.101439,1.185177 -0.101224,0.316917 -0.252721,0.475384 -0.455166,0.475384 l -2.102375,0 0,1.1868127 2.40617,0 c 0.05061,0 0.100914,0.1584419 0.100914,0.3163719 l 0,0.9491245 c 0,0.1579046 -0.0503,0.2376883 -0.100914,0.2376883 l -5.823581,0 z m -5.5182091,-3.8768184 0.9618369,0 0,-2.1343 -0.9618369,0 0,2.1343 z m 6.5063281,-1.185175 c -0.02699,0 -0.07726,-0.07873 -0.07726,-0.237688 l 0,-0.949125 c 0,-0.157905 0.0503,-0.236052 0.100914,-0.236052 l 1.167868,0 c 0.05061,0 0.100914,0.0778 0.100914,0.314736 l 0,0.870441 c 0,0.08007 -0.0503,0.237688 -0.100914,0.237688 l -1.191519,0 z m 2.733087,0 c -0.05062,0 -0.100914,-0.07873 -0.100914,-0.237688 l 0,-0.949125 c 0,-0.157905 0.0503,-0.236052 0.100914,-0.236052 l 1.190995,0 c 0.02699,0 0.07779,0.0778 0.07779,0.314736 l 0,0.870441 c 0,0.08007 -0.05083,0.237688 -0.101439,0.237688 l -1.167343,0 z M 4.1908461,-13.624384 c -0.050622,0 -0.075686,-0.239014 -0.075686,-0.318017 l 0.6328142,-4.427604 c 0.025293,-0.07898 0.05083,-0.08032 0.1014392,-0.08032 l 0.9113792,0 c 0.050615,0 0.075753,0.07973 0.050459,0.237688 l -0.6580446,4.429242 c 0,0.07898 -0.05083,0.159012 -0.1014414,0.159012 l -0.8609201,0 z m -7.493917,-0.634389 c -0.025293,0 -0.05083,-0.158694 -0.1014385,-0.237696 l -1.2908595,-4.427605 c -0.025293,-0.07898 -1.536e-4,-0.237688 0.050459,-0.237688 l 0.4304611,0 c -0.025293,-0.15793 -0.025218,-0.395844 -0.025218,-0.632752 l 0,-6.089793 c 0,-0.394846 0.050749,-0.790909 0.1266673,-1.027808 0.1012233,-0.316917 0.2277593,-0.554068 0.4052331,-0.554068 l 4.60735653,0 c 0.17713767,0 0.32923797,0.158466 0.43046147,0.475384 0.075917,0.2369 0.1266672,0.632677 0.1266672,1.106492 l 0,6.327489 c 0,0.15793 6.73e-5,0.316062 -0.025215,0.395056 l 0.5319002,0 c 0.025323,0 0.075753,0.158694 0.050457,0.237688 l -1.31661338,4.427605 c -0.0252956,0.07898 -0.0760541,0.237696 -0.12666726,0.237696 l -0.91137986,0 c -0.0506105,0 -0.0762775,-0.316062 -0.0509816,-0.395064 l 1.01334337,-3.480117 -3.94983597,0 1.0380472,3.480117 c 0.025293,0.07898 -0.025159,0.395064 -0.050459,0.395064 l -0.9623615,0 z m 26.2281789,-0.159005 1.568898,0 0,-1.739243 -1.568898,0 0,1.739243 z m 2.507083,0 1.545247,0 0,-1.739243 -1.545247,0 0,1.739243 z m -11.215643,-0.552431 c -0.02699,0 -0.07726,-0.07873 -0.07726,-0.237689 l 0,-0.949123 c 0,-0.07898 0.0503,-0.236052 0.100914,-0.236052 l 1.167868,0 c 0.05061,0 0.100914,0.158442 0.100914,0.316372 l 0,0.868803 c 0,0.158955 -0.0503,0.237689 -0.100914,0.237689 l -1.191519,0 z m 2.733087,0 c -0.05062,0 -0.100914,-0.07873 -0.100914,-0.237689 l 0,-0.949123 c 0,-0.07898 0.0503,-0.236052 0.100914,-0.236052 l 1.190995,0 c 0.02699,0 0.07779,0.158442 0.07779,0.316372 l 0,0.868803 c 0,0.158955 -0.05083,0.237689 -0.101439,0.237689 l -1.167343,0 z m -9.3408536,-0.55406 1.0885042,0 0.5056221,-2.055616 -2.0498163,0 0.45569,2.055616 z m 8.1766616,-0.552432 c -0.02363,0 -0.07411,-0.158156 -0.07411,-0.395056 l 0,-0.870441 -1.977282,0 c -0.124843,0 -0.252692,-0.159515 -0.326921,-0.475383 -0.0776,-0.237949 -0.101439,-0.631914 -0.101439,-1.027809 l 0,-4.034185 c 0,-0.473807 0.02385,-0.869584 0.101439,-1.106492 0.07423,-0.236899 0.175087,-0.395056 0.326921,-0.395056 l 1.977282,0 0,-1.186812 c 0,-0.632786 0.05068,-1.106995 0.151899,-1.422864 0.101218,-0.316918 0.225915,-0.475384 0.428357,-0.475384 l 2.787223,0 c 0.05062,0 0.124937,0.158442 0.175549,0.316372 l 0.151896,0.949123 c 0.02699,0.07898 -2.69e-4,0.237697 -0.05098,0.237697 l -2.709437,0 0,1.581868 1.95048,0 c 0.128215,0 0.252995,0.158157 0.330597,0.395056 0.07423,0.236908 0.125093,0.632685 0.125093,1.106492 l 0,4.034185 c 0,0.474864 -0.05086,0.87018 -0.125093,1.108137 -0.0776,0.236899 -0.202382,0.395055 -0.330597,0.395055 l -1.95048,0 0,0.949125 c 0,0.07898 -0.0233,0.316372 -0.100913,0.316372 l -0.759484,0 z m 7.139665,-1.819565 1.568898,0 0,-1.739235 -1.568898,0 0,1.739235 z m 2.507083,0 1.545247,0 0,-1.739235 -1.545247,0 0,1.739235 z m -11.242449,-1.027808 1.521592,0 0,-1.186812 -1.521592,0 0,1.186812 z m 2.456098,0 1.49479,0 0,-1.186812 -1.49479,0 0,1.186812 z m -9.4422916,-0.475376 1.9757076,0 0,-2.21462 -1.9757076,0 0,2.21462 z m -10.4813905,-0.552432 3.77271157,0 0,-1.976924 -3.77271157,0 0,1.976924 z m 8.3296083,0 c -0.050608,0 -0.1014386,-0.07898 -0.1014386,-0.159004 l -0.8351672,-7.038925 c 0,-0.15793 0.025077,-0.316372 0.075686,-0.316372 l 0.911377,0 c 0.050615,0 0.076146,0.07973 0.1014414,0.237687 l 0.8351673,7.038926 c 0,0.07898 -0.025159,0.237688 -0.050459,0.237688 l -0.9366088,0 z m 9.1379758,-1.662188 1.521592,0 0,-1.265505 -1.521592,0 0,1.265505 z m 2.456098,0 1.49479,0 0,-1.265505 -1.49479,0 0,1.265505 z m -19.9236821,-2.055616 3.77271157,0 0,-1.976933 -3.77271157,0 0,1.976933 z m 30.3057371,-9.173227 c -0.607336,0 -1.0391,-1.106936 -1.0391,-2.847372 0,-1.818348 0.381313,-2.372517 0.988643,-2.847373 0.479115,-0.394829 0.580255,-0.6324 0.580255,-1.185175 0,-0.553817 -0.151683,-0.872078 -0.42836,-0.872078 -0.303662,0 -0.583689,0.317976 -0.836744,0.950761 -0.0236,0.07898 -0.07411,0.07898 -0.07411,0 l -0.303795,-1.186812 c -0.02698,-0.07898 -0.02698,-0.158694 0,-0.237688 0.354279,-0.949712 0.78277,-1.34418 1.214647,-1.34418 0.630952,0 1.086403,1.027967 1.086403,2.847364 l 0,0.07864 c 0,1.581457 -0.327174,2.293842 -0.934507,2.768689 -0.533103,0.394837 -0.658043,0.632996 -0.658043,1.186812 l 0,0.07873 c 0,0.394829 0.151654,0.79011 0.404709,0.79011 0.22606,0 0.455445,-0.316312 0.708499,-0.79011 0.02363,-0.07898 0.07446,-0.07898 0.101439,0 l 0.252812,1.265495 c 0.0236,0.07898 0.0236,0.236052 0,0.236052 -0.303667,0.711763 -0.657865,1.108128 -1.06275,1.108128 z m -17.190596,-0.08032 c -0.027,0 -0.050459,-0.07864 -0.050459,-0.07864 l -1.215697,-9.01586 c -0.025293,-0.157938 -1.559e-4,-0.316371 0.050459,-0.316371 l 0.530851,0 c 0.027,0 0.050459,0.07998 0.050459,0.159004 l 0.25281,1.976932 1.265629,0 0.256491,-1.976932 c 0.02363,-0.07889 0.0505,-0.159004 0.07411,-0.159004 l 0.532952,0 c 0.05062,0 0.07411,0.158433 0.07411,0.316371 l -1.241452,9.015858 c 0,0 -0.0235,0.07864 -0.05046,0.07864 l -0.529799,0 z m 7.820836,0 c -0.02363,0 -0.05046,-0.07839 -0.05046,-0.157367 l -0.658043,-6.247169 -0.60706,6.168485 c 0,0.15793 -0.024,0.157368 -0.05099,0.157368 l -0.580256,0 c -0.05061,0 -0.07743,-0.07814 -0.05046,-0.236052 l 0.961837,-9.015858 c 0.02363,-0.07889 0.0505,-0.159004 0.07411,-0.159004 l 0.482495,0 c 0.02363,0 0.05046,0.07999 0.05046,0.159004 l 0.658043,6.009481 0.658045,-6.009481 c 0,-0.07889 0.02664,-0.159004 0.07726,-0.159004 l 0.455688,0 c 0.05062,0 0.07411,0.07999 0.07411,0.159004 l 0.961835,9.015858 c 0.02699,0.157896 -2.69e-4,0.236052 -0.05099,0.236052 l -0.556604,0 c -0.02363,0 -0.05046,5.62e-4 -0.05046,-0.157368 l -0.607585,-6.168485 -0.657519,6.247169 c 0,0.07889 -0.024,0.157367 -0.05098,0.157367 l -0.482495,0 z m 3.671272,0 c -0.02363,0 -0.0505,-0.07864 -0.07411,-0.07864 l -1.214646,-9.015858 c -0.02699,-0.157938 0.02347,-0.316371 0.05046,-0.316371 l 0.529798,0 c 0.02699,0 0.05028,0.07998 0.07726,0.159004 l 0.253337,1.976932 1.265103,0 0.253338,-1.976932 c 0,-0.07889 0.02686,-0.159004 0.05046,-0.159004 l 0.556604,0 c 0.05061,0 0.07747,0.158433 0.05046,0.316371 l -1.214646,9.015858 c -0.02363,0 -0.0505,0.07864 -0.07411,0.07864 l -0.509298,0 z m -25.974319,-0.07864 c -0.025293,0 -0.050459,-0.07839 -0.050459,-0.157368 l 0,-8.937173 c 0,-0.157914 0.025159,-0.237688 0.050459,-0.237688 l 0.5319004,0 c 0.025293,0 0.075685,0.07973 0.075685,0.237688 l 0,3.5588 1.1899457,0 0,-3.5588 c 0,-0.157914 0.050912,-0.237688 0.07621,-0.237688 l 0.5313757,0 c 0.025322,0 0.050986,0.07973 0.050986,0.237688 l 0,8.937173 c -3e-6,0.07889 -0.025701,0.157368 -0.050986,0.157368 l -0.5313757,0 c -0.025293,0 -0.07621,-0.07839 -0.07621,-0.157368 l 0,-3.480124 -1.1899457,0 0,3.480124 c 0,0.07889 -0.050392,0.157368 -0.075685,0.157368 l -0.5319004,0 z m 3.2408114,0 c -0.025322,0 -0.050457,-0.07839 -0.050457,-0.157368 l 0,-8.937173 c 0,-0.157914 0.025161,-0.237688 0.050457,-0.237688 l 0.53190028,0 c 0.0506187,0 0.0756854,0.07973 0.0756854,0.237688 l 0,8.937173 c 0,0.07889 -0.0250804,0.157368 -0.0756854,0.157368 l -0.53190028,0 z m 1.89897007,0 c -0.0252956,0 -0.0504569,3.11e-4 -0.0504569,-0.07864 l -1.01334342,-4.42925 0,-0.237688 1.01334342,-4.506288 c 0,0 0.0251346,-0.08032 0.0504569,-0.08032 l 0.58183243,0 c 0.05095,0 0.1015922,0.237403 0.050982,0.316372 l -0.96236166,4.350558 0.96236166,4.34892 c 0.050611,0.157938 -3.23e-5,0.31638 -0.050982,0.31638 l -0.58183243,0 z m 2.27844983,0 c -0.025322,0 -0.050459,-0.07839 -0.050459,-0.157368 l 0,-1.503192 c 0,-0.157913 0.025159,-0.237688 0.050459,-0.237688 l 0.860923,0 0,-7.196293 c 0,-0.157914 0.025159,-0.237688 0.050459,-0.237688 l 0.5319004,0 c 0.050622,0 0.075685,0.07973 0.075685,0.237688 l 0,7.196293 0.8356942,0 c 0.025293,0 0.075686,0.07973 0.075686,0.237688 l 0,1.503192 c 0,0.07889 -0.050392,0.157368 -0.075686,0.157368 l -2.3546595,0 z m 2.9874737,0 c -0.025293,0 -0.07621,-0.07839 -0.07621,-0.157368 l 0,-8.937173 c 0,-0.157905 0.050912,-0.237688 0.07621,-0.237688 l 0.5319001,0 c 0.025322,0 0.050459,0.07973 0.050459,0.237688 l 0,2.768688 0.5319033,0 0.6070607,-2.926056 c 0.025322,0 0.050459,-0.08032 0.050459,-0.08032 l 0.6333389,0 c 0.050615,0 0.075753,0.237369 0.050459,0.316371 l -0.6580423,3.006378 c 0.3795819,0.473806 0.6328142,1.423568 0.6328142,2.926057 0,0.869684 -0.1015038,1.659443 -0.2533376,2.134299 -0.2024414,0.632794 -0.5060415,0.949124 -0.8856235,0.949124 l -1.2913846,0 z m 6.455342,0 c -0.02363,0 -0.07463,-0.07839 -0.07463,-0.157368 l 0,-8.937173 c 0,-0.157914 0.05102,-0.237688 0.07463,-0.237688 l 0.506147,0 c 0.05063,0 0.07726,0.07973 0.07726,0.237688 l 0,5.852113 0.833593,-3.953865 0.863549,3.953865 0,-5.852113 c 0,-0.157914 0.024,-0.237688 0.05098,-0.237688 l 0.529274,0 c 0.027,0 0.05098,0.07973 0.05098,0.237688 l 0,8.937173 c 0,0.07889 -0.024,0.157368 -0.05098,0.157368 l -0.607061,0 c -0.02363,0 -0.05046,3.11e-4 -0.05046,-0.07864 l -0.786287,-3.875181 -0.759483,3.875181 c 0,0.07898 -0.0235,0.07864 -0.05046,0.07864 l -0.607061,0 z m 10.75943,0 c -0.05062,0 -0.101065,-0.158441 -0.05046,-0.31638 l 1.06275,-5.298044 0,-3.480117 c 0,-0.157914 0.05082,-0.237688 0.07779,-0.237688 l 0.529795,0 c 0.027,0 0.05046,0.07973 0.05046,0.237688 l 0,3.480117 1.090083,5.298044 c 0.02699,0.157939 -2.69e-4,0.31638 -0.05099,0.31638 l -0.580256,0 c -0.02699,0 -0.05029,3.11e-4 -0.07726,-0.07864 l -0.685373,-3.637493 -0.7085,3.637493 c 0,0.07898 -0.02347,0.07864 -0.05046,0.07864 l -0.607589,0 z m -16.632415,-1.817928 0.658046,0 c 0.3289714,0 0.531375,-0.474494 0.531375,-1.34418 0,-0.790732 -0.2024815,-1.345825 -0.5061469,-1.345825 l -0.6832741,0 0,2.690005 z m 3.746958,-0.554068 0.405233,-3.004732 -0.7862864,0 0.3810534,3.004732 z m 11.495787,0 0.377904,-3.004732 -0.78629,0 0.408386,3.004732 z m -13.3185459,-13.0484 c -0.076253,0 -0.1521922,-0.0799 -0.2281065,-0.159004 -0.050615,-0.07915 -0.1265138,-0.158233 -0.1771265,-0.316381 -0.050608,-0.07906 -0.076143,-0.236907 -0.1014393,-0.395055 -0.025322,-0.23732 -0.050459,-0.395526 -0.050459,-0.632752 0,-0.237319 0.025159,-0.474605 0.050459,-0.632745 0.0253,-0.158248 0.05083,-0.236915 0.1014393,-0.395064 0.050615,-0.07906 0.1012849,-0.237269 0.1518984,-0.316371 0.075914,-0.07906 0.1517744,-0.07982 0.2533346,-0.159005 0.075914,-0.07906 0.1265138,-0.157368 0.1771265,-0.157368 0.050608,-0.07906 0.076143,-0.159004 0.1014393,-0.159004 0.025322,-0.07906 0.050459,-0.156948 0.050459,-0.236052 0.025293,-0.07914 0.025211,-0.158592 0.025211,-0.237696 0,-0.237218 -0.025589,-0.396273 -0.07621,-0.475377 -0.050608,-0.07915 -0.126441,-0.157367 -0.2023553,-0.157367 -0.1015595,0 -0.2026485,0.07814 -0.2785628,0.157367 -0.07592,0.07906 -0.1516698,0.238167 -0.2275841,0.475377 L 7.6597482,-52.85151 c 0.101221,-0.237218 0.2020488,-0.474503 0.3032669,-0.632752 0.126527,-0.07906 0.2532159,-0.159004 0.3547761,-0.159004 0.1012233,0 0.1774196,8.22e-4 0.2533369,0.08032 0.050615,0.07906 0.1265137,0.158123 0.1771242,0.316372 0.050615,0.158149 0.075766,0.3156 0.1003892,0.473748 0.050615,0.158257 0.050459,0.395534 0.050459,0.632744 0,0.237319 -3.71e-5,0.39592 -0.023653,0.554068 -0.026992,0.15814 -0.051357,0.315953 -0.1019662,0.395056 -0.050607,0.158148 -0.1012826,0.237277 -0.1518961,0.31638 -0.075917,0.07906 -0.1516639,0.158476 -0.2275812,0.237688 -0.075914,0.07906 -0.1522672,0.07831 -0.20288,0.157368 -0.050607,0.07906 -0.07606,0.0799 -0.1266673,0.159004 -0.025322,0.07906 -0.050459,0.156948 -0.050459,0.236052 0,0.07906 -0.025211,0.158585 -0.025211,0.237688 0,0.158157 0.025078,0.315961 0.075685,0.395064 0.050608,0.158215 0.1266243,0.237688 0.2028778,0.237688 0.075914,0 0.1517425,-0.07814 0.2023553,-0.157367 0.075914,-0.07906 0.1516646,-0.238553 0.2275811,-0.396701 l 0.1513715,0.632753 c -0.075242,0.237217 -0.176368,0.396281 -0.2522853,0.475383 -0.101221,0.158216 -0.2024955,0.237689 -0.3290226,0.237689 z m 5.2138899,0 c -0.07423,0 -0.151774,-0.0799 -0.226004,-0.159004 -0.07761,-0.07915 -0.151745,-0.236916 -0.202353,-0.395065 -0.05062,-0.15814 -0.101269,-0.316732 -0.128246,-0.55406 -0.0236,-0.158148 -0.02365,-0.395433 -0.02365,-0.632752 l 0,-0.07864 c 0,-0.237219 3.8e-5,-0.395426 0.02365,-0.632745 0.02699,-0.158148 0.07763,-0.394644 0.128246,-0.473748 0.05061,-0.158248 0.100793,-0.237268 0.175023,-0.316372 0.0776,-0.07906 0.152079,-0.159004 0.229683,-0.159004 0.101221,0 0.175394,0.0799 0.226007,0.159004 0.0776,0.07906 0.128282,0.236799 0.151896,0.395056 0,-0.237327 -3.8e-5,-0.474604 -0.02365,-0.632743 -0.02699,-0.237328 -0.05081,-0.395929 -0.07779,-0.554069 -0.02363,-0.07906 -0.07396,-0.237168 -0.124566,-0.316372 -0.05062,-0.07915 -0.101286,-0.07864 -0.151898,-0.07864 -0.0776,0 -0.128124,-4.19e-4 -0.202353,0.07864 -0.05062,0.07915 -0.1011,0.236908 -0.178702,0.395056 l -0.1519,-0.711436 c 0.0776,-0.15814 0.151557,-0.315952 0.229161,-0.395056 0.07423,-0.158148 0.175762,-0.159005 0.276986,-0.159005 0.128214,0 0.22904,0.0799 0.303269,0.159005 0.0776,0.158249 0.152081,0.31685 0.229683,0.554068 0.05062,0.237328 0.100952,0.552508 0.124566,0.868796 0.027,0.395466 0.05099,0.712762 0.05099,1.108128 l 0,0.07873 c 0,0.474545 -0.024,0.870415 -0.05099,1.186813 -0.05061,0.237218 -0.100761,0.553287 -0.151372,0.711427 -0.05061,0.158148 -0.124936,0.315852 -0.175547,0.395064 -0.0776,0.07906 -0.178921,0.159004 -0.280143,0.159004 z m 1.623034,0 c -0.101218,0 -0.202538,-0.07948 -0.28014,-0.237689 -0.10122,-0.158148 -0.175394,-0.31685 -0.226007,-0.554068 -0.0776,-0.237318 -0.101288,-0.473714 -0.151896,-0.79012 -0.027,-0.316288 -0.05046,-0.713156 -0.05046,-1.029445 0,-0.395474 0.02347,-0.711411 0.05046,-1.027807 0.05061,-0.316288 0.07429,-0.631469 0.151896,-0.868795 0.05061,-0.237219 0.124787,-0.39582 0.226007,-0.554069 0.0776,-0.07906 0.178922,-0.159004 0.28014,-0.159004 0.101224,0 0.202232,0.0799 0.276464,0.159004 0.101221,0.158249 0.179073,0.31685 0.229683,0.554069 0.07423,0.237326 0.124921,0.552507 0.151899,0.868795 0.02363,0.316396 0.05046,0.632333 0.05046,1.027807 0,0.316289 -0.02686,0.713157 -0.05046,1.029445 -0.02699,0.316406 -0.07767,0.552802 -0.151899,0.79012 -0.05061,0.237218 -0.128123,0.39592 -0.202353,0.554068 -0.101223,0.158216 -0.20257,0.237689 -0.303794,0.237689 z m -8.8877903,-0.08032 0,-5.060356 1.2151745,0 0,0.79012 -0.9366088,0 0,1.34418 0.8099385,0 0,0.791756 -0.8099385,0 0,1.265497 0.9113777,0 0,0.868803 -1.1899434,0 z m 2.9123164,0 0,-0.868803 0.5061469,0 0,-4.191553 0.2764617,0 0,4.191553 0.5329523,0 0,0.868803 -1.3155609,0 z m 3.2155799,0 -0.455687,-0.395064 0.0741,-0.790111 0.28014,0.316372 0,-4.191553 0.276461,0 0,5.060356 -0.175022,0 z m 4.581601,0 -0.910852,-3.321112 0.05046,-0.632752 0.833593,0 0,-1.106492 0.252809,0 0,1.106492 0.229683,0 0,0.711436 -0.229683,0 0,3.242428 -0.226007,0 z m -3.444741,-0.711436 c 0.128215,0 0.2022,-0.0794 0.252813,-0.237688 0.0776,-0.237218 0.101439,-0.395038 0.101439,-0.711436 0,-0.07906 -3.8e-5,-0.237269 -0.02365,-0.316372 -0.02699,-0.158148 -0.02718,-0.237277 -0.07779,-0.31638 -0.02363,-0.07906 -0.0503,-0.157368 -0.100914,-0.157368 -0.02363,-0.07906 -0.07448,-0.08032 -0.125093,-0.08032 -0.101224,0 -0.178581,0.07957 -0.25281,0.237689 -0.05062,0.158257 -0.07779,0.395534 -0.07779,0.632752 0,0.158149 2.69e-4,0.236908 0.02733,0.395056 0,0.07906 0.0235,0.158232 0.05046,0.31638 0.02363,0.07906 0.07393,0.159005 0.100913,0.159005 0.05061,0.07906 0.07448,0.07864 0.125091,0.07864 z m 1.623034,0 c 0.05062,0 0.124937,-0.07814 0.17555,-0.157367 0.05061,-0.07906 0.07763,-0.238553 0.128244,-0.396701 0.02363,-0.158148 0.0505,-0.394275 0.07411,-0.552424 0.02698,-0.237218 0.0268,-0.475854 0.0268,-0.713073 0,-0.316296 1.72e-4,-0.553287 -0.0268,-0.711427 -0.02363,-0.237218 -0.0505,-0.474613 -0.07411,-0.632753 -0.05061,-0.158148 -0.07763,-0.237268 -0.128244,-0.316372 -0.05062,-0.158265 -0.101318,-0.157367 -0.17555,-0.157367 -0.05061,0 -0.128088,-8.22e-4 -0.178701,0.157367 -0.05061,0.07906 -0.07448,0.159483 -0.125091,0.396693 -0.02699,0.158149 -0.05081,0.315214 -0.07779,0.552432 -0.0236,0.23721 -0.02365,0.47421 -0.02365,0.711427 0,0.237219 4e-5,0.475855 0.02365,0.713073 0.02699,0.237219 0.05082,0.394276 0.07779,0.552424 0.05061,0.158148 0.07448,0.317597 0.125091,0.396701 0.05061,0.07914 0.1011,0.157367 0.178701,0.157367 z m 1.794905,-0.473739 0,-2.057253 -0.529799,0 0.529799,2.057253 z m -21.6707573,-1.503193 0,-0.237688 9.8995581,0 0,0.237688 -9.8995581,0 z m 23.0914353,0 0,-0.237688 9.895879,0 0,0.237688 -9.895879,0 z m -7.648968,-1.422864 0,-0.949124 0.3306,0 0,0.949124 -0.3306,0 z"
         id="path4170-4-2" />
    </g>
  </g>
</svg>
